<?xml version="1.0" encoding="UTF-8" standalone="no"?>
<svg xmlns="http://www.w3.org/2000/svg" viewBox="0 0 200 200" width="200" height="200">
  <g>
    <!-- Airplane body -->
    <path fill="#FFFFFF" stroke="#000000" stroke-width="2" d="M170,100c0,5.52-4.48,10-10,10H60c-5.52,0-10-4.48-10-10V80c0-5.52,4.48-10,10-10h100c5.52,0,10,4.48,10,10V100z"/>

    <!-- Nose cone -->
    <path fill="#FFFFFF" stroke="#000000" stroke-width="2" d="M50,90c0,5.52-4.48,10-10,10H30c-5.52,0-10-4.48-10-10v0c0-5.52,4.48-10,10-10h10C45.52,80,50,84.48,50,90z"/>

    <!-- Windows -->
    <circle fill="#87CEEB" cx="65" cy="85" r="3"/>
    <circle fill="#87CEEB" cx="80" cy="85" r="3"/>
    <circle fill="#87CEEB" cx="95" cy="85" r="3"/>
    <circle fill="#87CEEB" cx="110" cy="85" r="3"/>
    <circle fill="#87CEEB" cx="125" cy="85" r="3"/>
    <circle fill="#87CEEB" cx="140" cy="85" r="3"/>
    <circle fill="#87CEEB" cx="155" cy="85" r="3"/>

    <!-- Wings -->
    <path fill="#FFFFFF" stroke="#000000" stroke-width="2" d="M120,110l-20,30H80l-20-30H120z"/>
    <path fill="#FFFFFF" stroke="#000000" stroke-width="2" d="M120,70l-20-30H80L60,70H120z"/>

    <!-- Tail wing -->
    <path fill="#FFFFFF" stroke="#000000" stroke-width="2" d="M170,90l20-20v40L170,90z"/>
  </g>
</svg>
