<?xml version="1.0" encoding="UTF-8" standalone="no"?>
<svg xmlns="http://www.w3.org/2000/svg" viewBox="0 0 200 200" width="200" height="200">
  <g>
    <!-- Balloon -->
    <path fill="#FB5858" d="M100,30c-33.14,0-60,25.07-60,56c0,30.93,26.86,56,60,56s60-25.07,60-56C160,55.07,133.14,30,100,30z M100,132
    c-27.62,0-50-20.89-50-46.67c0-25.77,22.38-46.67,50-46.67s50,20.89,50,46.67C150,111.11,127.62,132,100,132z"/>

    <!-- Vertical stripes -->
    <path fill="#FFD700" d="M110,38.67c-3.33-0.44-6.67-0.67-10-0.67s-6.67,0.22-10,0.67v93.33c3.33,0.44,6.67,0.67,10,0.67s6.67-0.22,10-0.67V38.67z"/>
    <path fill="#FFD700" d="M80,43.67c-2.89,1.11-5.56,2.44-8,4v79.33c2.44,1.56,5.11,2.89,8,4V43.67z"/>
    <path fill="#FFD700" d="M120,43.67v87.33c2.89-1.11,5.56-2.44,8-4V47.67C125.56,46.11,122.89,44.78,120,43.67z"/>

    <!-- Basket -->
    <rect fill="#8B4513" x="90" y="142" width="20" height="15" rx="2" ry="2"/>

    <!-- Ropes -->
    <path fill="none" stroke="#8B4513" stroke-width="2" d="M90,142l-10-10"/>
    <path fill="none" stroke="#8B4513" stroke-width="2" d="M110,142l10-10"/>
    <path fill="none" stroke="#8B4513" stroke-width="2" d="M95,142l-5-10"/>
    <path fill="none" stroke="#8B4513" stroke-width="2" d="M105,142l5-10"/>
  </g>
</svg>
