<?xml version="1.0" encoding="UTF-8" standalone="no"?>
<svg xmlns="http://www.w3.org/2000/svg" viewBox="0 0 200 200" width="200" height="200">
  <path fill="#000000" d="M142.83,54.92c-2.33-0.47-4.89-0.7-7.59-0.7c-9.86,0-18.61,3.61-23.68,9.21c-3.38-3.84-8.6-6.29-15.09-7.24
  c2.82-5.15,3.65-9.64,3.65-9.64s-5.15,1.08-11.42,6.13c-0.28-3.86-1.17-7.23-1.17-7.23s-3.1,5.15-4.18,12.02
  c-6.13,1.5-10.86,4.04-15.09,7.59c-0.14-0.01-0.27-0.02-0.41-0.02c-2.7,0-4.89,2.19-4.89,4.89c0,0.88,0.24,1.7,0.64,2.41
  c-6.36,9.35-10.06,22.04-10.06,31.76c0,4.8,0.29,12.19,3.84,12.19c4.63,0,13.41-15.68,13.41-15.68s0,8.09-5.01,15.68
  c6.13-3.38,10.06-11.26,10.06-11.26s0.33,6.46-2.82,12.57c10.88-8.21,15.44-19.35,15.44-19.35s1.08,5.15-1.5,13.06
  c5.57-4.31,8.21-13.17,8.21-13.17s2.19,3.27,0.14,9.96c16.97-17.23,19.13-24.05,22.39-29.92c2.91-5.24,9.81-8.96,17.91-8.96
  c1.77,0,3.47,0.14,5.09,0.4c-1.23-3.71-2.75-6.73-2.75-6.73S147.34,55.84,142.83,54.92z"/>
  <circle fill="#FFFFFF" cx="72" cy="84" r="3"/>
</svg>
