<?xml version="1.0" encoding="UTF-8" standalone="no"?>
<svg xmlns="http://www.w3.org/2000/svg" viewBox="0 0 200 200" width="200" height="200">
  <g>
    <!-- Central module -->
    <rect fill="#DDDDDD" stroke="#555555" stroke-width="2" x="80" y="85" width="40" height="30" rx="5" ry="5"/>

    <!-- Main truss -->
    <rect fill="#888888" stroke="#555555" stroke-width="2" x="30" y="95" width="140" height="10"/>

    <!-- Solar panels left -->
    <rect fill="#4169E1" stroke="#555555" stroke-width="2" x="20" y="60" width="30" height="70"/>
    <line stroke="#555555" stroke-width="1" x1="20" y1="65" x2="50" y2="65"/>
    <line stroke="#555555" stroke-width="1" x1="20" y1="70" x2="50" y2="70"/>
    <line stroke="#555555" stroke-width="1" x1="20" y1="75" x2="50" y2="75"/>
    <line stroke="#555555" stroke-width="1" x1="20" y1="80" x2="50" y2="80"/>
    <line stroke="#555555" stroke-width="1" x1="20" y1="85" x2="50" y2="85"/>
    <line stroke="#555555" stroke-width="1" x1="20" y1="90" x2="50" y2="90"/>
    <line stroke="#555555" stroke-width="1" x1="20" y1="95" x2="50" y2="95"/>
    <line stroke="#555555" stroke-width="1" x1="20" y1="100" x2="50" y2="100"/>
    <line stroke="#555555" stroke-width="1" x1="20" y1="105" x2="50" y2="105"/>
    <line stroke="#555555" stroke-width="1" x1="20" y1="110" x2="50" y2="110"/>
    <line stroke="#555555" stroke-width="1" x1="20" y1="115" x2="50" y2="115"/>
    <line stroke="#555555" stroke-width="1" x1="20" y1="120" x2="50" y2="120"/>
    <line stroke="#555555" stroke-width="1" x1="20" y1="125" x2="50" y2="125"/>

    <!-- Solar panels right -->
    <rect fill="#4169E1" stroke="#555555" stroke-width="2" x="150" y="60" width="30" height="70"/>
    <line stroke="#555555" stroke-width="1" x1="150" y1="65" x2="180" y2="65"/>
    <line stroke="#555555" stroke-width="1" x1="150" y1="70" x2="180" y2="70"/>
    <line stroke="#555555" stroke-width="1" x1="150" y1="75" x2="180" y2="75"/>
    <line stroke="#555555" stroke-width="1" x1="150" y1="80" x2="180" y2="80"/>
    <line stroke="#555555" stroke-width="1" x1="150" y1="85" x2="180" y2="85"/>
    <line stroke="#555555" stroke-width="1" x1="150" y1="90" x2="180" y2="90"/>
    <line stroke="#555555" stroke-width="1" x1="150" y1="95" x2="180" y2="95"/>
    <line stroke="#555555" stroke-width="1" x1="150" y1="100" x2="180" y2="100"/>
    <line stroke="#555555" stroke-width="1" x1="150" y1="105" x2="180" y2="105"/>
    <line stroke="#555555" stroke-width="1" x1="150" y1="110" x2="180" y2="110"/>
    <line stroke="#555555" stroke-width="1" x1="150" y1="115" x2="180" y2="115"/>
    <line stroke="#555555" stroke-width="1" x1="150" y1="120" x2="180" y2="120"/>
    <line stroke="#555555" stroke-width="1" x1="150" y1="125" x2="180" y2="125"/>

    <!-- Side modules -->
    <rect fill="#DDDDDD" stroke="#555555" stroke-width="2" x="60" y="80" width="15" height="40" rx="5" ry="5"/>
    <rect fill="#DDDDDD" stroke="#555555" stroke-width="2" x="125" y="80" width="15" height="40" rx="5" ry="5"/>

    <!-- Connection modules -->
    <circle fill="#DDDDDD" stroke="#555555" stroke-width="2" cx="100" cy="75" r="7"/>
    <circle fill="#DDDDDD" stroke="#555555" stroke-width="2" cx="100" cy="125" r="7"/>

    <!-- Additional modules -->
    <rect fill="#DDDDDD" stroke="#555555" stroke-width="2" x="90" y="65" width="20" height="15" rx="5" ry="5"/>
    <rect fill="#DDDDDD" stroke="#555555" stroke-width="2" x="90" y="120" width="20" height="15" rx="5" ry="5"/>
  </g>
</svg>
